<?xml version="1.0" encoding="iso-8859-1"?>

<!DOCTYPE svg PUBLIC "-//W3C//DTD SVG 1.1//EN" "http://www.w3.org/Graphics/SVG/1.1/DTD/svg11.dtd">
<!-- Uploaded to: SVG Repo, www.svgrepo.com, Generator: SVG Repo Mixer Tools -->
<svg height="800px" width="800px" version="1.1" id="_x36_" xmlns="http://www.w3.org/2000/svg" xmlns:xlink="http://www.w3.org/1999/xlink" 
	 viewBox="0 0 512 512"  xml:space="preserve">
<g>
	<g>
		<g>
			<path style="fill:#A5B35C;" d="M466.131,370.8c-0.758,1.674-1.549,3.334-2.348,4.991
				C464.586,374.133,465.37,372.47,466.131,370.8z"/>
			<path style="fill:#A5B35C;" d="M335.897,494.238c-0.402,0.161-0.804,0.316-1.206,0.475
				C335.093,494.555,335.495,494.398,335.897,494.238z"/>
			<path style="fill:#A5B35C;" d="M243.842,511.974c-1.216,0.001-2.432-0.004-3.647-0.021
				C241.411,511.968,242.626,511.977,243.842,511.974z"/>
			<path style="fill:#A5B35C;" d="M258.258,511.544c-0.105,0.006-0.211,0.012-0.316,0.018
				C258.046,511.557,258.152,511.551,258.258,511.544z"/>
			<path style="fill:#A5B35C;" d="M251.104,511.859c-0.691,0.021-1.383,0.039-2.074,0.054
				C249.722,511.898,250.413,511.881,251.104,511.859z"/>
			<path style="fill:#A5B35C;" d="M466.639,369.664c10.715-23.869,17.093-48.842,19.33-73.944
				c-0.93,10.25-2.539,20.425-4.818,30.457C477.77,341.065,472.907,355.632,466.639,369.664z"/>
			<path style="fill:#A5B35C;" d="M236.576,511.88c-1.738-0.049-3.475-0.111-5.209-0.196
				C233.103,511.766,234.839,511.834,236.576,511.88z"/>
			<path style="fill:#A5B35C;" d="M485.996,295.426c0.107-1.215,0.235-2.43,0.322-3.645l-0.055-0.004
				C486.174,292.994,486.104,294.212,485.996,295.426z"/>
			<path style="fill:#A5B35C;" d="M344.08,490.792c-1.003,0.445-2.01,0.873-3.017,1.303
				C342.072,491.667,343.077,491.234,344.08,490.792z"/>
			<path style="fill:#A5B35C;" d="M353.56,486.36c18.901-9.309,36.689-21.085,52.812-35.235
				c-9.829,8.596-20.504,16.53-32.011,23.675C367.553,479.025,360.609,482.87,353.56,486.36z"/>
			<path style="fill:#A5B35C;" d="M460.748,381.85c0.55-1.057,1.093-2.115,1.626-3.176
				C461.843,379.737,461.295,380.793,460.748,381.85z"/>
			<path style="fill:#A5B35C;" d="M458.238,386.571c-0.224,0.41-0.452,0.817-0.678,1.225
				C457.787,387.388,458.013,386.98,458.238,386.571z"/>
			<path style="fill:#A5B35C;" d="M419.962,438.243c-0.192,0.197-0.379,0.397-0.572,0.593
				C419.583,438.641,419.771,438.44,419.962,438.243z"/>
			<path style="fill:#A5B35C;" d="M349.961,488.129c0.786-0.371,1.559-0.772,2.341-1.151c-1.638,0.799-3.285,1.565-4.934,2.326
				C348.231,488.908,349.103,488.534,349.961,488.129z"/>
			<path style="fill:#A5B35C;" d="M226.218,511.416c1.033,0.07,2.066,0.104,3.1,0.161c-1.034-0.059-2.064-0.143-3.096-0.215
				L226.218,511.416z"/>
			<path style="fill:#A5B35C;" d="M411.037,446.911c-1.333,1.229-2.664,2.459-4.03,3.662
				C408.365,449.373,409.703,448.146,411.037,446.911z"/>
			<path style="fill:#A5B35C;" d="M415.517,442.666c-0.738,0.716-1.464,1.44-2.212,2.148
				C414.049,444.107,414.781,443.383,415.517,442.666z"/>
			<path style="fill:#C36AA6;" d="M486.45,260.594c0.007,0.102,0.013,0.205,0.019,0.308
				C486.463,260.799,486.457,260.697,486.45,260.594z"/>
			<path style="fill:#C36AA6;" d="M486.381,290.295c0,0.456,0,0.986-0.078,1.517h-0.078
				C486.224,291.282,486.302,290.751,486.381,290.295z"/>
			<path style="fill:#BE6FAA;" d="M243.413,275.044l-1.325,0.228l-6.938,1.289l-15.823,3.035L8.787,319.128l-4.365,0.834
				c-3.586-18.057-4.989-36.495-4.209-55.009c0.078-2.276,0.234-4.475,0.39-6.752c2.884-40.138,16.291-80.124,41.157-115.936
				l179.283,118.061l10.757,7.132l5.613,3.642l4.755,3.111L243.413,275.044z"/>
			<path style="fill:#C8B35B;" d="M260.64,38.62l-15.823,217.532l-1.404,18.893l-1.247-0.835l-4.755-3.111l-5.613-3.642
				l-10.757-7.132L41.759,142.264c3.04-4.325,6.236-8.574,9.51-12.67c23.463-29.516,52.927-52.278,85.666-67.681
				c19.176-9.104,39.52-15.63,60.332-19.574c20.345-3.794,41.235-5.085,62.048-3.794C259.783,38.545,260.172,38.62,260.64,38.62z"/>
			<path style="fill:#76B2B8;" d="M176.182,502.743c14.865,4.171,29.976,6.912,45.144,8.248
				c-10.244-0.915-20.414-2.445-30.444-4.604C185.944,505.324,181.044,504.102,176.182,502.743z"/>
			<path style="fill:#76B2B8;" d="M166.322,499.755c-1.739-0.565-3.474-1.139-5.2-1.742
				C162.85,498.619,164.585,499.189,166.322,499.755z"/>
			<path style="fill:#76B2B8;" d="M153.87,495.37c0.981,0.379,1.973,0.712,2.957,1.078c-0.984-0.364-1.971-0.718-2.951-1.095
				L153.87,495.37z"/>
			<path style="fill:#76B2B8;" d="M223.128,511.147c1.03,0.083,2.059,0.198,3.09,0.268l0.004-0.054
				C225.19,511.29,224.158,511.232,223.128,511.147z"/>
			<path style="fill:#76B2B8;" d="M174.919,502.388c-2.051-0.585-4.094-1.201-6.13-1.839
				C170.828,501.19,172.871,501.802,174.919,502.388z"/>
			<path style="fill:#76B2B8;" d="M77.274,448.193c-1.993-1.815-3.969-3.653-5.907-5.541
				C73.299,444.526,75.268,446.373,77.274,448.193z"/>
			<path style="fill:#76B2B8;" d="M243.413,275.044L81.279,432.864l-7.483,7.284l-2.494,2.429
				c-9.978-9.636-18.864-20.032-26.814-30.957c-7.639-10.471-14.265-21.549-19.955-32.93c-9.354-18.665-16.058-38.468-20.111-58.727
				l4.365-0.834l210.54-39.531l15.823-3.035l6.938-1.289L243.413,275.044z"/>
			<path style="fill:#76B2B8;" d="M143.28,490.982c-0.844-0.37-1.686-0.746-2.526-1.126
				C141.595,490.237,142.437,490.611,143.28,490.982z"/>
			<path style="fill:#76B2B8;" d="M118.585,478.434c-0.066-0.038-0.132-0.076-0.197-0.114
				C118.453,478.359,118.519,478.396,118.585,478.434z"/>
			<path style="fill:#76B2B8;" d="M153.239,495.116c0.211,0.082,0.42,0.172,0.631,0.253l0.007-0.017
				C153.665,495.272,153.45,495.198,153.239,495.116z"/>
			<path style="fill:#76B2B8;" d="M88.904,458.095c-0.766-0.613-1.536-1.219-2.295-1.842
				C87.367,456.873,88.137,457.483,88.904,458.095z"/>
			<path style="fill:#76B2B8;" d="M151.389,494.374c-1.512-0.6-3.019-1.213-4.52-1.843
				C148.371,493.164,149.879,493.773,151.389,494.374z"/>
			<path style="fill:#76B2B8;" d="M83.236,453.423c-1.337-1.14-2.67-2.286-3.984-3.458C80.564,451.13,81.892,452.283,83.236,453.423
				z"/>
			<path style="fill:#76B2B8;" d="M136.268,487.777c-0.326-0.155-0.649-0.316-0.974-0.472
				C135.619,487.462,135.942,487.622,136.268,487.777z"/>
			<path style="opacity:0.16;fill:#361E25;" d="M419.39,438.837c-1.274,1.299-2.574,2.563-3.873,3.829
				C416.822,441.399,418.119,440.128,419.39,438.837z"/>
			<path style="opacity:0.16;fill:#361E25;" d="M341.063,492.095c-1.716,0.729-3.435,1.452-5.167,2.142
				C337.625,493.545,339.346,492.829,341.063,492.095z"/>
			<path style="opacity:0.16;fill:#361E25;" d="M240.195,511.953c-1.206-0.015-2.413-0.041-3.619-0.073
				C237.782,511.914,238.988,511.936,240.195,511.953z"/>
			<path style="opacity:0.16;fill:#361E25;" d="M258.258,511.544c25.832-1.509,51.641-7.047,76.433-16.832
				c-14.573,5.722-29.658,10.063-45.033,12.956C279.297,509.619,268.807,510.913,258.258,511.544z"/>
			<path style="opacity:0.16;fill:#361E25;" d="M231.366,511.684c-0.683-0.033-1.366-0.069-2.049-0.107
				C230,511.616,230.683,511.651,231.366,511.684z"/>
			<path style="opacity:0.16;fill:#361E25;" d="M176.182,502.743c-0.421-0.118-0.842-0.234-1.263-0.354
				C175.34,502.508,175.761,502.625,176.182,502.743z"/>
			<path style="opacity:0.16;fill:#361E25;" d="M223.128,511.147c-0.601-0.048-1.201-0.104-1.802-0.156
				C221.927,511.044,222.527,511.098,223.128,511.147z"/>
			<path style="opacity:0.16;fill:#361E25;" d="M459.477,384.333c0.438-0.822,0.843-1.657,1.271-2.483
				c-0.821,1.578-1.649,3.155-2.51,4.721C458.647,385.823,459.076,385.085,459.477,384.333z"/>
			<path style="opacity:0.16;fill:#361E25;" d="M419.962,438.243c14.964-15.31,27.532-32.304,37.597-50.447
				c-3.771,6.764-7.903,13.415-12.422,19.923C437.491,418.729,429.055,428.906,419.962,438.243z"/>
			<path style="opacity:0.16;fill:#361E25;" d="M347.368,489.303c-1.094,0.501-2.187,1.004-3.288,1.489
				C345.179,490.305,346.274,489.808,347.368,489.303z"/>
			<path style="opacity:0.16;fill:#361E25;" d="M254.197,511.779c1.248-0.052,2.496-0.145,3.744-0.216
				c-2.276,0.133-4.556,0.225-6.837,0.296C252.135,511.829,253.165,511.822,254.197,511.779z"/>
			<path style="opacity:0.16;fill:#361E25;" d="M413.305,444.814c-0.748,0.71-1.512,1.399-2.268,2.098
				C411.795,446.213,412.558,445.52,413.305,444.814z"/>
			<path style="opacity:0.16;fill:#361E25;" d="M249.03,511.914c-1.728,0.04-3.458,0.056-5.188,0.06
				C245.571,511.973,247.3,511.951,249.03,511.914z"/>
			<path style="opacity:0.16;fill:#361E25;" d="M88.904,458.095c9.361,7.496,19.216,14.247,29.483,20.225
				c-3.801-2.216-7.562-4.545-11.278-6.99C100.767,467.157,94.71,462.728,88.904,458.095z"/>
			<path style="opacity:0.16;fill:#361E25;" d="M353.56,486.36c-0.419,0.206-0.837,0.415-1.258,0.618
				C352.722,486.773,353.141,486.567,353.56,486.36z"/>
			<path style="opacity:0.16;fill:#361E25;" d="M407.007,450.574c-0.21,0.186-0.425,0.365-0.636,0.551
				C406.582,450.94,406.797,450.759,407.007,450.574z"/>
			<path style="opacity:0.16;fill:#361E25;" d="M466.639,369.664c-0.17,0.379-0.337,0.758-0.509,1.136
				C466.302,370.422,466.47,370.043,466.639,369.664z"/>
			<path style="opacity:0.16;fill:#361E25;" d="M486.77,267.533c-0.078-1.897-0.156-3.718-0.234-5.615
				c0.078,0.91,0.078,1.745,0.156,2.655C486.77,265.56,486.77,266.547,486.77,267.533z"/>
			<path style="opacity:0.16;fill:#361E25;" d="M485.996,295.426c-0.009,0.098-0.017,0.195-0.026,0.293
				C485.979,295.622,485.987,295.524,485.996,295.426z"/>
			<path style="opacity:0.16;fill:#361E25;" d="M463.783,375.791c-0.466,0.962-0.93,1.925-1.41,2.883
				C462.851,377.716,463.319,376.754,463.783,375.791z"/>
			<path style="opacity:0.16;fill:#361E25;" d="M161.122,498.013c-1.436-0.504-2.866-1.034-4.295-1.565
				C158.256,496.976,159.683,497.51,161.122,498.013z"/>
			<path style="opacity:0.16;fill:#361E25;" d="M146.869,492.531c-1.2-0.505-2.395-1.024-3.589-1.549
				C144.474,491.505,145.668,492.027,146.869,492.531z"/>
			<path style="opacity:0.16;fill:#361E25;" d="M86.609,456.253c-1.139-0.932-2.256-1.881-3.373-2.829
				C84.354,454.376,85.476,455.322,86.609,456.253z"/>
			<path style="opacity:0.16;fill:#361E25;" d="M131.135,485.289c1.376,0.695,2.771,1.348,4.158,2.016
				c-5.644-2.727-11.219-5.677-16.709-8.871C122.711,480.832,126.884,483.142,131.135,485.289z"/>
			<path style="opacity:0.16;fill:#361E25;" d="M140.754,489.856c-1.499-0.68-2.996-1.367-4.486-2.079
				C137.756,488.486,139.252,489.177,140.754,489.856z"/>
			<path style="opacity:0.16;fill:#361E25;" d="M168.79,500.549c-0.824-0.259-1.646-0.527-2.467-0.795
				C167.144,500.022,167.965,500.291,168.79,500.549z"/>
			<path style="opacity:0.16;fill:#361E25;" d="M153.239,495.116c-0.618-0.241-1.233-0.496-1.85-0.742
				C152.007,494.62,152.619,494.876,153.239,495.116z"/>
			<path style="opacity:0.16;fill:#361E25;" d="M79.251,449.966c-0.663-0.588-1.322-1.179-1.977-1.773
				C77.929,448.789,78.591,449.377,79.251,449.966z"/>
			<path style="opacity:0.16;fill:#361E25;" d="M71.293,442.582c0.024,0.024,0.05,0.045,0.074,0.069
				C71.343,442.628,71.318,442.605,71.293,442.582L71.293,442.582z"/>
			<path style="fill:#A5B35C;" d="M486.224,291.813c-0.078,1.214-0.156,2.428-0.234,3.642v0.228c-0.234,2.58-0.546,5.16-0.858,7.739
				c-0.234,2.352-0.623,4.704-1.013,7.132c0,0.304-0.078,0.608-0.155,0.987c-0.312,1.897-0.624,3.87-1.013,5.842
				c-0.156,0.91-0.312,1.821-0.546,2.73c-0.312,1.897-0.78,3.87-1.169,5.767c0,0.076-0.078,0.228-0.078,0.304
				c-0.078,0.152-0.078,0.38-0.156,0.532c-0.702,3.262-1.559,6.524-2.416,9.787c-0.234,0.759-0.39,1.442-0.624,2.125
				c-0.624,2.124-1.247,4.249-1.949,6.297c-0.624,2.125-1.325,4.173-2.027,6.222c-2.182,6.221-4.599,12.443-7.327,18.513
				c-0.155,0.38-0.39,0.759-0.546,1.138c-0.779,1.669-1.559,3.339-2.338,5.008c-0.468,0.91-0.935,1.897-1.403,2.882l-1.637,3.188
				c-0.779,1.517-1.637,3.11-2.494,4.703c-0.234,0.38-0.468,0.835-0.701,1.214c-1.559,2.807-3.196,5.691-4.989,8.498
				c-2.338,3.87-4.755,7.663-7.405,11.457c-1.559,2.201-3.118,4.401-4.755,6.601c-1.013,1.366-2.105,2.731-3.118,4.098
				c-0.858,1.138-1.715,2.2-2.651,3.263c-1.247,1.593-2.494,3.11-3.819,4.627c-3.43,4.098-7.094,8.119-10.835,11.913
				c-0.234,0.228-0.39,0.38-0.546,0.607c-1.325,1.29-2.572,2.579-3.897,3.794c-0.779,0.759-1.481,1.442-2.182,2.125
				c-0.78,0.759-1.559,1.442-2.339,2.125c-1.325,1.214-2.65,2.504-3.975,3.642c-0.234,0.227-0.468,0.379-0.624,0.607
				c-2.572,2.277-5.222,4.477-7.951,6.602c-2.416,1.972-4.911,3.869-7.483,5.766c-2.651,1.973-5.379,3.946-8.107,5.767
				c-2.806,1.897-5.612,3.718-8.496,5.54c-3.196,1.972-6.392,3.869-9.666,5.615c-3.741,2.124-7.405,4.097-11.147,5.918
				c-0.39,0.228-0.857,0.455-1.247,0.607c-1.637,0.835-3.274,1.594-4.911,2.353c-1.091,0.456-2.183,0.986-3.352,1.441
				c-0.935,0.456-1.949,0.911-2.962,1.366c-1.715,0.683-3.43,1.442-5.222,2.125c-0.39,0.151-0.78,0.303-1.169,0.455
				c-3.586,1.442-7.249,2.808-10.913,4.022c-2.962,0.986-5.846,1.897-8.808,2.731c-1.793,0.607-3.664,1.138-5.535,1.594
				c-2.183,0.683-4.287,1.213-6.47,1.745c-1.091,0.304-2.182,0.531-3.196,0.759c-2.962,0.683-5.846,1.29-8.808,1.821
				c-0.468,0.152-0.857,0.228-1.325,0.303c-1.404,0.304-2.885,0.532-4.288,0.76c-2.026,0.38-4.131,0.683-6.236,0.986
				c-6.938,0.986-13.875,1.745-20.89,2.124h-0.312c-2.261,0.152-4.521,0.228-6.781,0.304c-0.702,0-1.404,0.076-2.105,0.076
				c-1.715,0-3.43,0.076-5.222,0.076c-1.169,0-2.416,0-3.586-0.076c-1.247,0-2.416,0-3.663-0.076c-1.715,0-3.43-0.076-5.223-0.152
				c-0.623-0.076-1.325-0.076-2.027-0.152c-1.013,0-2.026-0.076-3.118-0.151l1.403-18.818l15.823-217.531l240.706,16.616
				L486.224,291.813z"/>
			<path style="opacity:0.16;fill:#361E25;" d="M486.224,291.813c-0.078,1.214-0.156,2.428-0.234,3.642v0.228
				c-0.234,2.58-0.546,5.16-0.858,7.739c-0.234,2.352-0.623,4.704-1.013,7.132c0,0.304-0.078,0.608-0.155,0.987
				c-0.312,1.897-0.624,3.87-1.013,5.842c-0.156,0.91-0.312,1.821-0.546,2.73c-0.312,1.897-0.78,3.87-1.169,5.767
				c0,0.076-0.078,0.228-0.078,0.304c-0.078,0.152-0.078,0.38-0.156,0.532c-0.702,3.262-1.559,6.524-2.416,9.787
				c-0.234,0.759-0.39,1.442-0.624,2.125c-0.624,2.124-1.247,4.249-1.949,6.297c-0.624,2.125-1.325,4.173-2.027,6.222
				c-2.182,6.221-4.599,12.443-7.327,18.513c-0.155,0.38-0.39,0.759-0.546,1.138c-0.779,1.669-1.559,3.339-2.338,5.008
				c-0.468,0.91-0.935,1.897-1.403,2.882l-1.637,3.188c-0.779,1.517-1.637,3.11-2.494,4.703c-0.234,0.38-0.468,0.835-0.701,1.214
				c-1.559,2.807-3.196,5.691-4.989,8.498c-2.338,3.87-4.755,7.663-7.405,11.457c-1.559,2.201-3.118,4.401-4.755,6.601
				c-1.013,1.366-2.105,2.731-3.118,4.098c-0.858,1.138-1.715,2.2-2.651,3.263c-1.247,1.593-2.494,3.11-3.819,4.627
				c-3.43,4.098-7.094,8.119-10.835,11.913c-0.234,0.228-0.39,0.38-0.546,0.607c-1.325,1.29-2.572,2.579-3.897,3.794
				c-0.779,0.759-1.481,1.442-2.182,2.125c-0.78,0.759-1.559,1.442-2.339,2.125c-1.325,1.214-2.65,2.504-3.975,3.642
				c-0.234,0.227-0.468,0.379-0.624,0.607c-2.572,2.277-5.222,4.477-7.951,6.602c-2.416,1.972-4.911,3.869-7.483,5.766
				c-2.651,1.973-5.379,3.946-8.107,5.767c-2.806,1.897-5.612,3.718-8.496,5.54c-3.196,1.972-6.392,3.869-9.666,5.615
				c-3.741,2.124-7.405,4.097-11.147,5.918c-0.39,0.228-0.857,0.455-1.247,0.607c-1.637,0.835-3.274,1.594-4.911,2.353
				c-1.091,0.456-2.183,0.986-3.352,1.441c-0.935,0.456-1.949,0.911-2.962,1.366c-1.715,0.683-3.43,1.442-5.222,2.125
				c-0.39,0.151-0.78,0.303-1.169,0.455c-3.586,1.442-7.249,2.808-10.913,4.022c-2.962,0.986-5.846,1.897-8.808,2.731
				c-1.793,0.607-3.664,1.138-5.535,1.594c-2.183,0.683-4.287,1.213-6.47,1.745c-1.091,0.304-2.182,0.531-3.196,0.759
				c-2.962,0.683-5.846,1.29-8.808,1.821c-0.468,0.152-0.857,0.228-1.325,0.303c-1.404,0.304-2.885,0.532-4.288,0.76
				c-2.026,0.38-4.131,0.683-6.236,0.986c-6.938,0.986-13.875,1.745-20.89,2.124h-0.312c-2.261,0.152-4.521,0.228-6.781,0.304
				c-0.702,0-1.404,0.076-2.105,0.076c-1.715,0-3.43,0.076-5.222,0.076c-1.169,0-2.416,0-3.586-0.076c-1.247,0-2.416,0-3.663-0.076
				c-1.715,0-3.43-0.076-5.223-0.152c-0.623-0.076-1.325-0.076-2.027-0.152c-1.013,0-2.026-0.076-3.118-0.151l1.403-18.818
				l15.823-217.531l240.706,16.616L486.224,291.813z"/>
			<g>
				<path style="fill:#C36AA6;" d="M487.27,157.377c0.458,0.978,0.899,1.96,1.341,2.942
					C488.171,159.336,487.725,158.355,487.27,157.377z"/>
				<path style="fill:#C36AA6;" d="M484.535,151.654c-0.381-0.765-0.792-1.517-1.182-2.279c0.821,1.594,1.608,3.197,2.389,4.802
					C485.335,153.338,484.952,152.49,484.535,151.654z"/>
				<path style="fill:#C36AA6;" d="M490.809,165.34c0.166,0.394,0.327,0.789,0.492,1.183
					C491.137,166.128,490.974,165.734,490.809,165.34z"/>
				<path style="fill:#C36AA6;" d="M482.717,148.151c-11.422-21.974-26.461-42.402-44.95-60.368
					c12.24,11.938,23.372,25.314,33.074,40.12C475.182,134.53,479.132,141.289,482.717,148.151z"/>
				<path style="opacity:0.16;fill:#361E25;" d="M488.612,160.319c0.748,1.668,1.489,3.338,2.197,5.021
					C490.099,163.661,489.364,161.988,488.612,160.319z"/>
				<path style="opacity:0.16;fill:#361E25;" d="M508.591,240.917c-1.55-25.142-7.239-50.264-17.29-74.394
					c5.877,14.184,10.336,28.866,13.308,43.829C506.612,220.438,507.942,230.649,508.591,240.917z"/>
				<path style="opacity:0.16;fill:#361E25;" d="M482.717,148.151c0.212,0.408,0.426,0.815,0.636,1.224
					C483.142,148.967,482.93,148.559,482.717,148.151z"/>
				<path style="opacity:0.16;fill:#361E25;" d="M485.741,154.178c0.515,1.064,1.031,2.128,1.529,3.199
					C486.77,156.308,486.259,155.242,485.741,154.178z"/>
				<path style="opacity:0.16;fill:#361E25;" d="M437.743,87.76L437.743,87.76c0.008,0.008,0.016,0.016,0.024,0.024
					C437.759,87.776,437.751,87.768,437.743,87.76z"/>
				<g>
					<path style="fill:#C36AA6;" d="M355.192,26.328L272.41,229.824l-2.806,6.904l-4.053,9.94l0.779-10.168v-0.758l0.156-1.366
						l16.369-224.057c23.151,1.594,46.302,6.449,68.673,14.72C352.776,25.418,353.945,25.872,355.192,26.328z"/>
					<path style="fill:#C36AA6;" d="M437.742,79.123c-10.786-10.478-22.722-20.133-35.816-28.749
						c-14.957-9.842-30.643-17.816-46.76-24.039l-89.578,220.359L437.742,79.123z"/>
					<path style="fill:#C36AA6;" d="M509.063,246.288c0,1.214,0,2.352-0.078,3.566c0,1.214,0,2.353-0.078,3.567
						c0,1.669-0.078,3.338-0.156,5.008c-0.078,0.683-0.078,1.365-0.156,2.049c0,0.985-0.156,1.972-0.156,2.958l-21.592-1.517h-0.312
						l-220.985-15.251L433.999,82.703l3.742-3.567c11.614,11.305,22.293,24.053,31.647,38.013c0.545,0.684,1.013,1.442,1.481,2.125
						c4.287,6.601,8.263,13.354,11.848,20.259c0.234,0.379,0.39,0.835,0.624,1.214c0.857,1.593,1.637,3.186,2.416,4.779
						c0.468,1.063,1.013,2.125,1.481,3.187l1.403,2.959c0.702,1.669,1.481,3.338,2.183,5.008c0.156,0.379,0.312,0.835,0.468,1.214
						c5.924,14.188,10.367,28.832,13.329,43.855c2.027,10.015,3.352,20.259,3.975,30.502v0.304c0.156,2.276,0.234,4.476,0.312,6.677
						c0,0.683,0.078,1.365,0.078,2.049v1.821C509.063,244.163,509.063,245.226,509.063,246.288z"/>
					<path style="opacity:0.16;fill:#361E25;" d="M509.063,246.288c0,1.214,0,2.352-0.078,3.566c0,1.214,0,2.353-0.078,3.567
						c0,1.669-0.078,3.338-0.156,5.008c-0.078,0.683-0.078,1.365-0.156,2.049c0,0.985-0.156,1.972-0.156,2.958l-21.592-1.517h-0.312
						l-220.985-15.251L433.999,82.703l3.742-3.567c11.614,11.305,22.293,24.053,31.647,38.013c0.545,0.684,1.013,1.442,1.481,2.125
						c4.287,6.601,8.263,13.354,11.848,20.259c0.234,0.379,0.39,0.835,0.624,1.214c0.857,1.593,1.637,3.186,2.416,4.779
						c0.468,1.063,1.013,2.125,1.481,3.187l1.403,2.959c0.702,1.669,1.481,3.338,2.183,5.008c0.156,0.379,0.312,0.835,0.468,1.214
						c5.924,14.188,10.367,28.832,13.329,43.855c2.027,10.015,3.352,20.259,3.975,30.502v0.304c0.156,2.276,0.234,4.476,0.312,6.677
						c0,0.683,0.078,1.365,0.078,2.049v1.821C509.063,244.163,509.063,245.226,509.063,246.288z"/>
				</g>
			</g>
			<path style="fill:#76B2B8;" d="M243.448,275.009l-89.572,220.343c0.979,0.377,1.967,0.73,2.951,1.095
				c1.43,0.531,2.859,1.062,4.295,1.565c1.726,0.603,3.461,1.178,5.2,1.742c0.822,0.268,1.644,0.536,2.467,0.795
				c2.036,0.638,4.078,1.254,6.13,1.839c0.42,0.12,0.842,0.236,1.263,0.354c4.862,1.359,9.763,2.581,14.7,3.644
				c10.03,2.159,20.2,3.689,30.444,4.604c0.601,0.053,1.201,0.108,1.802,0.156c1.03,0.085,2.063,0.143,3.094,0.215L243.448,275.009z
				"/>
			<path style="opacity:0.16;fill:#361E25;" d="M243.448,275.009l-89.572,220.343c0.979,0.377,1.967,0.73,2.951,1.095
				c1.43,0.531,2.859,1.062,4.295,1.565c1.726,0.603,3.461,1.178,5.2,1.742c0.822,0.268,1.644,0.536,2.467,0.795
				c2.036,0.638,4.078,1.254,6.13,1.839c0.42,0.12,0.842,0.236,1.263,0.354c4.862,1.359,9.763,2.581,14.7,3.644
				c10.03,2.159,20.2,3.689,30.444,4.604c0.601,0.053,1.201,0.108,1.802,0.156c1.03,0.085,2.063,0.143,3.094,0.215L243.448,275.009z
				"/>
			<path style="fill:#76B2B8;" d="M243.448,275.009L71.294,442.582c0.024,0.024,0.049,0.047,0.073,0.07
				c1.938,1.888,3.914,3.726,5.907,5.541c0.655,0.594,1.314,1.185,1.977,1.773c1.315,1.171,2.647,2.318,3.984,3.458
				c1.117,0.949,2.234,1.898,3.373,2.829c0.759,0.623,1.53,1.229,2.295,1.842c5.806,4.633,11.863,9.062,18.206,13.236
				c3.716,2.445,7.477,4.773,11.278,6.99c0.066,0.038,0.131,0.076,0.197,0.114c5.489,3.194,11.065,6.145,16.709,8.871
				c0.325,0.157,0.648,0.317,0.974,0.472c1.49,0.712,2.987,1.399,4.486,2.079c0.84,0.38,1.682,0.756,2.526,1.126
				c1.194,0.525,2.39,1.044,3.589,1.549c1.5,0.63,3.008,1.243,4.52,1.843c0.617,0.246,1.231,0.501,1.85,0.742
				c0.211,0.082,0.426,0.155,0.637,0.236L243.448,275.009z"/>
			<path style="opacity:0.16;fill:#361E25;" d="M243.448,275.009L71.294,442.582c0.024,0.024,0.049,0.047,0.073,0.07
				c1.938,1.888,3.914,3.726,5.907,5.541c0.655,0.594,1.314,1.185,1.977,1.773c1.315,1.171,2.647,2.318,3.984,3.458
				c1.117,0.949,2.234,1.898,3.373,2.829c0.759,0.623,1.53,1.229,2.295,1.842c5.806,4.633,11.863,9.062,18.206,13.236
				c3.716,2.445,7.477,4.773,11.278,6.99c0.066,0.038,0.131,0.076,0.197,0.114c5.489,3.194,11.065,6.145,16.709,8.871
				c0.325,0.157,0.648,0.317,0.974,0.472c1.49,0.712,2.987,1.399,4.486,2.079c0.84,0.38,1.682,0.756,2.526,1.126
				c1.194,0.525,2.39,1.044,3.589,1.549c1.5,0.63,3.008,1.243,4.52,1.843c0.617,0.246,1.231,0.501,1.85,0.742
				c0.211,0.082,0.426,0.155,0.637,0.236L243.448,275.009z"/>
		</g>
		<g>
			<path style="fill:#BDD375;" d="M466.146,351.899c-0.758,1.674-1.549,3.334-2.348,4.991
				C464.601,355.232,465.386,353.569,466.146,351.899z"/>
			<path style="fill:#BDD375;" d="M335.912,475.337c-0.402,0.161-0.804,0.316-1.206,0.475
				C335.108,475.654,335.511,475.497,335.912,475.337z"/>
			<path style="fill:#BDD375;" d="M243.857,493.073c-1.216,0.001-2.432-0.004-3.647-0.021
				C241.426,493.067,242.642,493.076,243.857,493.073z"/>
			<path style="fill:#BDD375;" d="M258.273,492.643c-0.105,0.006-0.211,0.012-0.316,0.018
				C258.062,492.655,258.167,492.65,258.273,492.643z"/>
			<path style="fill:#BDD375;" d="M251.12,492.958c-0.691,0.021-1.383,0.039-2.074,0.054
				C249.737,492.997,250.428,492.98,251.12,492.958z"/>
			<path style="fill:#BDD375;" d="M236.591,492.979c-1.737-0.049-3.475-0.111-5.209-0.196
				C233.119,492.865,234.855,492.932,236.591,492.979z"/>
			<path style="fill:#BDD375;" d="M344.096,471.891c-1.003,0.445-2.01,0.873-3.017,1.303
				C342.087,472.766,343.093,472.333,344.096,471.891z"/>
			<path style="fill:#BDD375;" d="M353.575,467.458c18.901-9.309,36.689-21.085,52.812-35.235
				c-9.829,8.596-20.504,16.531-32.011,23.675C367.569,460.124,360.625,463.969,353.575,467.458z"/>
			<path style="fill:#BDD375;" d="M460.763,362.949c0.55-1.057,1.093-2.114,1.626-3.176
				C461.858,360.836,461.31,361.892,460.763,362.949z"/>
			<path style="fill:#BDD375;" d="M458.253,367.67c-0.224,0.41-0.452,0.817-0.678,1.225
				C457.802,368.487,458.028,368.079,458.253,367.67z"/>
			<path style="fill:#BDD375;" d="M419.978,419.342c-0.192,0.197-0.379,0.397-0.572,0.593
				C419.598,419.74,419.786,419.539,419.978,419.342z"/>
			<path style="fill:#BDD375;" d="M349.977,469.228c0.786-0.371,1.559-0.771,2.341-1.151c-1.638,0.799-3.285,1.565-4.934,2.325
				C348.247,470.007,349.118,469.633,349.977,469.228z"/>
			<path style="fill:#BDD375;" d="M226.233,492.515c1.033,0.07,2.066,0.104,3.1,0.161c-1.033-0.059-2.064-0.143-3.096-0.215
				L226.233,492.515z"/>
			<path style="fill:#BDD375;" d="M411.052,428.01c-1.333,1.229-2.664,2.459-4.03,3.662
				C408.38,430.472,409.719,429.245,411.052,428.01z"/>
			<path style="fill:#BDD375;" d="M415.532,423.765c-0.737,0.716-1.464,1.44-2.212,2.148
				C414.064,425.206,414.796,424.482,415.532,423.765z"/>
			<path style="fill:#E887B5;" d="M486.907,255.737c0.001,1.177-0.004,2.354-0.021,3.53
				C486.901,258.09,486.91,256.913,486.907,255.737z"/>
			<path style="fill:#E887B5;" d="M486.79,248.665c0.021,0.665,0.04,1.331,0.055,1.996
				C486.829,249.996,486.812,249.331,486.79,248.665z"/>
			<path style="fill:#E887B5;" d="M486.466,241.693c0.007,0.102,0.013,0.205,0.019,0.308
				C486.478,241.898,486.472,241.796,486.466,241.693z"/>
			<path style="fill:#CC91BE;" d="M243.491,256.076l-22.449,4.25L4.422,301.069c-2.338-11.912-3.741-23.976-4.209-36.116
				c-0.39-8.573-0.234-17.072,0.39-25.645c2.884-40.138,16.369-80.124,41.157-115.936l9.51,6.222L243.491,256.076z"/>
			<path style="fill:#F6EF77;" d="M260.753,19.727l-0.304,3.187l-0.227,2.958l-0.455,6.45l-0.455,6.222l-15.327,211.006
				l-0.531,6.525l-11.002-7.284l-132.249-87.028l-21.245-13.962l-22.686-14.871l-5.007-3.338l-4.78-3.112l-4.704-3.11
				c12.292-17.679,26.632-33.157,42.414-46.587c7.511-6.297,15.403-12.14,23.597-17.45c9.333-6.146,19.121-11.609,29.136-16.314
				c19.196-9.105,39.531-15.63,60.32-19.575c18.437-3.49,37.254-4.856,56.147-4.097C255.821,19.424,258.325,19.576,260.753,19.727z"
				/>
			<path style="fill:#9ED7E6;" d="M176.197,483.842c14.865,4.171,29.976,6.912,45.144,8.248
				c-10.244-0.915-20.414-2.445-30.444-4.604C185.96,486.423,181.059,485.201,176.197,483.842z"/>
			<path style="fill:#9ED7E6;" d="M166.338,480.854c-1.739-0.564-3.474-1.14-5.2-1.742
				C162.866,479.717,164.601,480.288,166.338,480.854z"/>
			<path style="fill:#9ED7E6;" d="M153.885,476.468c0.981,0.379,1.973,0.712,2.957,1.078c-0.984-0.364-1.971-0.718-2.951-1.095
				L153.885,476.468z"/>
			<path style="fill:#9ED7E6;" d="M223.143,492.246c1.03,0.083,2.06,0.198,3.09,0.268l0.004-0.054
				C225.206,492.389,224.173,492.331,223.143,492.246z"/>
			<path style="fill:#9ED7E6;" d="M174.935,483.487c-2.051-0.585-4.094-1.201-6.13-1.839
				C170.843,482.289,172.886,482.901,174.935,483.487z"/>
			<path style="fill:#9ED7E6;" d="M77.29,429.292c-1.993-1.815-3.969-3.653-5.907-5.541
				C73.314,425.625,75.284,427.472,77.29,429.292z"/>
			<path style="fill:#9ED7E6;" d="M4.443,301.089c4.024,20.261,10.756,40.011,20.074,58.699
				c11.627,23.321,27.31,44.968,46.793,63.893l172.154-167.572L4.443,301.089z"/>
			<path style="fill:#9ED7E6;" d="M143.296,472.081c-0.844-0.37-1.686-0.746-2.526-1.126
				C141.61,471.336,142.452,471.71,143.296,472.081z"/>
			<path style="fill:#9ED7E6;" d="M118.6,459.533c-0.066-0.038-0.132-0.076-0.197-0.114
				C118.469,459.457,118.535,459.495,118.6,459.533z"/>
			<path style="fill:#9ED7E6;" d="M153.254,476.215c0.211,0.082,0.42,0.172,0.631,0.253l0.007-0.017
				C153.68,476.37,153.466,476.297,153.254,476.215z"/>
			<path style="fill:#9ED7E6;" d="M88.92,439.194c-0.766-0.613-1.536-1.219-2.295-1.842
				C87.382,437.971,88.152,438.582,88.92,439.194z"/>
			<path style="fill:#9ED7E6;" d="M151.404,475.473c-1.512-0.6-3.019-1.213-4.52-1.843
				C148.386,474.263,149.895,474.872,151.404,475.473z"/>
			<path style="fill:#9ED7E6;" d="M83.251,434.522c-1.338-1.14-2.67-2.287-3.984-3.458
				C80.579,432.229,81.907,433.382,83.251,434.522z"/>
			<path style="fill:#9ED7E6;" d="M136.283,468.876c-0.326-0.155-0.649-0.316-0.974-0.472
				C135.634,468.561,135.958,468.721,136.283,468.876z"/>
			<path style="opacity:0.16;fill:#361E25;" d="M419.406,419.935c-1.274,1.299-2.574,2.563-3.873,3.829
				C416.837,422.498,418.135,421.227,419.406,419.935z"/>
			<path style="opacity:0.16;fill:#361E25;" d="M341.079,473.194c-1.716,0.729-3.435,1.452-5.167,2.142
				C337.64,474.644,339.362,473.928,341.079,473.194z"/>
			<path style="opacity:0.16;fill:#361E25;" d="M240.21,493.052c-1.206-0.015-2.412-0.041-3.619-0.073
				C237.797,493.013,239.003,493.035,240.21,493.052z"/>
			<path style="opacity:0.16;fill:#361E25;" d="M258.273,492.643c25.832-1.509,51.641-7.047,76.433-16.832
				c-14.574,5.722-29.658,10.063-45.033,12.956C279.313,490.718,268.822,492.012,258.273,492.643z"/>
			<path style="opacity:0.16;fill:#361E25;" d="M231.382,492.783c-0.683-0.033-1.366-0.069-2.049-0.107
				C230.016,492.715,230.699,492.75,231.382,492.783z"/>
			<path style="opacity:0.16;fill:#361E25;" d="M176.197,483.842c-0.421-0.118-0.842-0.234-1.262-0.355
				C175.355,483.607,175.776,483.724,176.197,483.842z"/>
			<path style="opacity:0.16;fill:#361E25;" d="M223.143,492.246c-0.601-0.048-1.201-0.104-1.802-0.157
				C221.942,492.143,222.542,492.197,223.143,492.246z"/>
			<path style="opacity:0.16;fill:#361E25;" d="M459.492,365.432c0.438-0.822,0.843-1.657,1.271-2.483
				c-0.822,1.578-1.649,3.155-2.51,4.721C458.662,366.922,459.092,366.184,459.492,365.432z"/>
			<path style="opacity:0.16;fill:#361E25;" d="M419.978,419.342c14.964-15.31,27.532-32.304,37.597-50.447
				c-3.771,6.764-7.903,13.415-12.422,19.923C437.507,399.828,429.071,410.005,419.978,419.342z"/>
			<path style="opacity:0.16;fill:#361E25;" d="M347.384,470.402c-1.094,0.501-2.187,1.004-3.288,1.489
				C345.194,471.404,346.289,470.907,347.384,470.402z"/>
			<path style="opacity:0.16;fill:#361E25;" d="M254.212,492.878c1.248-0.052,2.496-0.145,3.744-0.216
				c-2.276,0.133-4.556,0.225-6.837,0.296C252.151,492.928,253.181,492.921,254.212,492.878z"/>
			<path style="opacity:0.16;fill:#361E25;" d="M413.32,425.912c-0.748,0.71-1.512,1.399-2.268,2.098
				C411.81,427.312,412.574,426.619,413.32,425.912z"/>
			<path style="opacity:0.16;fill:#361E25;" d="M249.046,493.013c-1.729,0.04-3.458,0.056-5.188,0.061
				C245.586,493.072,247.315,493.05,249.046,493.013z"/>
			<path style="opacity:0.16;fill:#361E25;" d="M88.92,439.194c9.361,7.497,19.216,14.247,29.483,20.225
				c-3.801-2.216-7.562-4.544-11.278-6.99C100.783,448.256,94.726,443.827,88.92,439.194z"/>
			<path style="opacity:0.16;fill:#361E25;" d="M353.575,467.458c-0.419,0.206-0.837,0.415-1.258,0.618
				C352.737,467.872,353.156,467.666,353.575,467.458z"/>
			<path style="opacity:0.16;fill:#361E25;" d="M407.022,431.673c-0.21,0.186-0.425,0.365-0.636,0.551
				C406.598,432.039,406.812,431.858,407.022,431.673z"/>
			<path style="opacity:0.16;fill:#361E25;" d="M486.845,250.661c0.041,1.691,0.058,3.383,0.062,5.075
				C486.906,254.045,486.883,252.354,486.845,250.661z"/>
			<path style="opacity:0.16;fill:#361E25;" d="M466.655,350.763c-0.17,0.379-0.337,0.758-0.509,1.136
				C466.317,351.521,466.486,351.142,466.655,350.763z"/>
			<path style="opacity:0.16;fill:#361E25;" d="M486.707,245.646c-0.054-1.215-0.149-2.43-0.222-3.645
				c0.137,2.219,0.232,4.441,0.306,6.664C486.758,247.659,486.751,246.652,486.707,245.646z"/>
			<path style="opacity:0.16;fill:#361E25;" d="M463.798,356.89c-0.466,0.962-0.93,1.925-1.41,2.883
				C462.866,358.815,463.334,357.853,463.798,356.89z"/>
			<path style="opacity:0.16;fill:#361E25;" d="M486.886,259.267c-0.015,1.177-0.042,2.355-0.075,3.533
				C486.845,261.622,486.868,260.445,486.886,259.267z"/>
			<path style="opacity:0.16;fill:#361E25;" d="M161.137,479.111c-1.436-0.503-2.866-1.034-4.295-1.565
				C158.272,478.075,159.699,478.609,161.137,479.111z"/>
			<path style="opacity:0.16;fill:#361E25;" d="M146.885,473.63c-1.2-0.505-2.395-1.024-3.589-1.549
				C144.489,472.604,145.683,473.126,146.885,473.63z"/>
			<path style="opacity:0.16;fill:#361E25;" d="M86.625,437.352c-1.139-0.931-2.256-1.881-3.373-2.829
				C84.369,435.475,85.491,436.421,86.625,437.352z"/>
			<path style="opacity:0.16;fill:#361E25;" d="M131.151,466.388c1.376,0.695,2.771,1.348,4.159,2.016
				c-5.644-2.727-11.219-5.677-16.709-8.871C122.727,461.931,126.899,464.241,131.151,466.388z"/>
			<path style="opacity:0.16;fill:#361E25;" d="M140.769,470.955c-1.499-0.68-2.996-1.367-4.486-2.079
				C137.772,469.585,139.268,470.276,140.769,470.955z"/>
			<path style="opacity:0.16;fill:#361E25;" d="M168.805,481.648c-0.824-0.259-1.646-0.527-2.467-0.795
				C167.16,481.121,167.98,481.39,168.805,481.648z"/>
			<path style="opacity:0.16;fill:#361E25;" d="M153.254,476.215c-0.618-0.241-1.233-0.496-1.85-0.742
				C152.022,475.719,152.635,475.975,153.254,476.215z"/>
			<path style="opacity:0.16;fill:#361E25;" d="M79.267,431.065c-0.663-0.588-1.322-1.179-1.977-1.773
				C77.945,429.888,78.606,430.476,79.267,431.065z"/>
			<path style="opacity:0.16;fill:#361E25;" d="M71.309,423.681c0.024,0.024,0.05,0.045,0.074,0.069
				C71.358,423.727,71.334,423.704,71.309,423.681L71.309,423.681z"/>
			<path style="fill:#BDD375;" d="M486.302,272.844c-0.078,1.214-0.156,2.504-0.312,3.718v0.228
				c-0.234,2.58-0.546,5.159-0.858,7.663c-0.312,2.428-0.623,4.856-1.013,7.208c0,0.152,0,0.304-0.078,0.456
				c-0.39,2.428-0.78,4.78-1.247,7.132c-0.078,0.38-0.078,0.76-0.156,1.063c-0.468,2.276-0.935,4.551-1.481,6.828
				c0,0.076,0,0.076,0,0.152c0,0.076,0,0.152-0.078,0.228c-0.78,3.49-1.637,6.98-2.65,10.47c-0.078,0.456-0.234,0.835-0.312,1.215
				c-0.624,2.276-1.326,4.551-2.105,6.828c-0.624,2.125-1.325,4.173-2.027,6.222c-2.182,6.221-4.599,12.443-7.327,18.513
				c-0.155,0.38-0.312,0.759-0.546,1.138c-0.701,1.669-1.481,3.339-2.338,5.008c-0.468,0.91-0.935,1.897-1.403,2.882
				c-0.546,1.063-1.091,2.125-1.637,3.187c-0.779,1.518-1.637,3.111-2.494,4.704c-0.234,0.38-0.468,0.836-0.701,1.214
				c-1.793,3.187-3.664,6.373-5.69,9.56c-0.078,0.303-0.312,0.683-0.546,0.986c-1.949,3.186-3.975,6.297-6.158,9.332
				c-1.871,2.655-3.741,5.311-5.612,7.815c-0.312,0.38-0.546,0.683-0.78,0.986c-1.403,1.897-2.884,3.718-4.365,5.539
				c-1.169,1.442-2.338,2.959-3.585,4.324c-3.508,4.174-7.094,8.119-10.835,11.913c-0.156,0.152-0.39,0.38-0.546,0.607
				c-1.325,1.29-2.572,2.504-3.897,3.794c-0.701,0.759-1.481,1.442-2.182,2.125c-0.78,0.759-1.559,1.442-2.261,2.124
				c-1.325,1.215-2.728,2.428-4.053,3.643c-0.234,0.227-0.468,0.379-0.624,0.607c-2.65,2.277-5.301,4.553-8.029,6.677
				c-2.26,1.821-4.521,3.567-6.859,5.312c-0.39,0.303-0.701,0.531-1.091,0.834c-2.495,1.822-4.989,3.567-7.561,5.312
				c-2.806,1.897-5.612,3.718-8.496,5.539c-3.196,1.973-6.392,3.87-9.666,5.616c-3.663,2.124-7.405,4.097-11.147,5.917
				c-0.39,0.228-0.779,0.379-1.247,0.607c-1.637,0.835-3.274,1.594-4.911,2.352c-1.091,0.456-2.183,0.986-3.274,1.441l-3.04,1.366
				c-1.715,0.683-3.43,1.442-5.144,2.125c-0.39,0.151-0.858,0.303-1.247,0.455c-3.586,1.442-7.249,2.732-10.913,4.022
				c-0.156,0-0.312,0.076-0.468,0.152c-3.585,1.213-7.171,2.277-10.757,3.338c-0.078,0-0.078,0-0.156,0
				c-3.274,0.987-6.548,1.897-9.822,2.656c-0.935,0.228-1.871,0.455-2.806,0.683c-3.196,0.759-6.314,1.442-9.51,1.973
				c-0.234,0.075-0.39,0.075-0.623,0.151c-0.078,0-0.234,0.076-0.312,0.076c-1.481,0.304-2.962,0.532-4.521,0.759
				c-1.871,0.38-3.663,0.607-5.534,0.91c-6.938,0.986-13.953,1.745-20.968,2.124h-0.312c-2.339,0.152-4.599,0.228-6.859,0.304
				c-0.702,0-1.404,0.076-2.105,0.076c-1.715,0-3.43,0-5.145,0.076c-1.247,0-2.494-0.076-3.663-0.076c-1.247,0-2.416,0-3.663-0.076
				c-1.715,0-3.43-0.076-5.145-0.152c-0.701-0.076-1.403-0.076-2.105-0.152c-0.545,0-1.091-0.076-1.715-0.076
				c-0.39-0.076-0.857-0.151-1.325-0.151l15.59-213.435l0.156-2.58l0.078-1.137l0.078-1.062l1.325-18.134l1.326,0.076
				L486.302,272.844z"/>
			<path style="opacity:0.16;fill:#361E25;" d="M486.302,272.844c-0.078,1.214-0.156,2.504-0.312,3.718v0.228
				c-0.234,2.58-0.546,5.159-0.858,7.663c-0.312,2.428-0.623,4.856-1.013,7.208c0,0.152,0,0.304-0.078,0.456
				c-0.39,2.428-0.78,4.78-1.247,7.132c-0.078,0.38-0.078,0.76-0.156,1.063c-0.468,2.276-0.935,4.551-1.481,6.828
				c0,0.076,0,0.076,0,0.152c0,0.076,0,0.152-0.078,0.228c-0.78,3.49-1.637,6.98-2.65,10.47c-0.078,0.456-0.234,0.835-0.312,1.215
				c-0.624,2.276-1.326,4.551-2.105,6.828c-0.624,2.125-1.325,4.173-2.027,6.222c-2.182,6.221-4.599,12.443-7.327,18.513
				c-0.155,0.38-0.312,0.759-0.546,1.138c-0.701,1.669-1.481,3.339-2.338,5.008c-0.468,0.91-0.935,1.897-1.403,2.882
				c-0.546,1.063-1.091,2.125-1.637,3.187c-0.779,1.518-1.637,3.111-2.494,4.704c-0.234,0.38-0.468,0.836-0.701,1.214
				c-1.793,3.187-3.664,6.373-5.69,9.56c-0.078,0.303-0.312,0.683-0.546,0.986c-1.949,3.186-3.975,6.297-6.158,9.332
				c-1.871,2.655-3.741,5.311-5.612,7.815c-0.312,0.38-0.546,0.683-0.78,0.986c-1.403,1.897-2.884,3.718-4.365,5.539
				c-1.169,1.442-2.338,2.959-3.585,4.324c-3.508,4.174-7.094,8.119-10.835,11.913c-0.156,0.152-0.39,0.38-0.546,0.607
				c-1.325,1.29-2.572,2.504-3.897,3.794c-0.701,0.759-1.481,1.442-2.182,2.125c-0.78,0.759-1.559,1.442-2.261,2.124
				c-1.325,1.215-2.728,2.428-4.053,3.643c-0.234,0.227-0.468,0.379-0.624,0.607c-2.65,2.277-5.301,4.553-8.029,6.677
				c-2.26,1.821-4.521,3.567-6.859,5.312c-0.39,0.303-0.701,0.531-1.091,0.834c-2.495,1.822-4.989,3.567-7.561,5.312
				c-2.806,1.897-5.612,3.718-8.496,5.539c-3.196,1.973-6.392,3.87-9.666,5.616c-3.663,2.124-7.405,4.097-11.147,5.917
				c-0.39,0.228-0.779,0.379-1.247,0.607c-1.637,0.835-3.274,1.594-4.911,2.352c-1.091,0.456-2.183,0.986-3.274,1.441l-3.04,1.366
				c-1.715,0.683-3.43,1.442-5.144,2.125c-0.39,0.151-0.858,0.303-1.247,0.455c-3.586,1.442-7.249,2.732-10.913,4.022
				c-0.156,0-0.312,0.076-0.468,0.152c-3.585,1.213-7.171,2.277-10.757,3.338c-0.078,0-0.078,0-0.156,0
				c-3.274,0.987-6.548,1.897-9.822,2.656c-0.935,0.228-1.871,0.455-2.806,0.683c-3.196,0.759-6.314,1.442-9.51,1.973
				c-0.234,0.075-0.39,0.075-0.623,0.151c-0.078,0-0.234,0.076-0.312,0.076c-1.481,0.304-2.962,0.532-4.521,0.759
				c-1.871,0.38-3.663,0.607-5.534,0.91c-6.938,0.986-13.953,1.745-20.968,2.124h-0.312c-2.339,0.152-4.599,0.228-6.859,0.304
				c-0.702,0-1.404,0.076-2.105,0.076c-1.715,0-3.43,0-5.145,0.076c-1.247,0-2.494-0.076-3.663-0.076c-1.247,0-2.416,0-3.663-0.076
				c-1.715,0-3.43-0.076-5.145-0.152c-0.701-0.076-1.403-0.076-2.105-0.152c-0.545,0-1.091-0.076-1.715-0.076
				c-0.39-0.076-0.857-0.151-1.325-0.151l15.59-213.435l0.156-2.58l0.078-1.137l0.078-1.062l1.325-18.134l1.326,0.076
				L486.302,272.844z"/>
			<g>
				<path style="fill:#E887B5;" d="M355.216,16.085l-3.718,8.954l-8.346,20.638l-2.2,5.387l-74.433,183.313l-0.91,2.048
					l14.719-202.204l0.683-8.726L282.832,0C307.34,1.669,331.695,6.98,355.216,16.085z"/>
				<path style="fill:#E887B5;" d="M487.286,138.476c0.457,0.978,0.899,1.96,1.341,2.942
					C488.186,140.435,487.741,139.454,487.286,138.476z"/>
				<path style="fill:#E887B5;" d="M484.55,132.753c-0.381-0.765-0.792-1.517-1.182-2.278c0.821,1.594,1.608,3.197,2.389,4.802
					C485.351,134.437,484.967,133.589,484.55,132.753z"/>
				<path style="fill:#E887B5;" d="M490.824,146.439c0.167,0.394,0.327,0.788,0.492,1.183
					C491.153,147.227,490.99,146.833,490.824,146.439z"/>
				<path style="fill:#E887B5;" d="M482.732,129.25c-11.422-21.974-26.461-42.402-44.95-60.367
					c12.24,11.938,23.372,25.314,33.074,40.12C475.197,115.629,479.147,122.388,482.732,129.25z"/>
				<path style="fill:#E887B5;" d="M437.74,68.895l-5.378,5.235l-3.586,3.49L265.629,236.424l0.857-2.048l85.043-209.337
					l3.663-8.954c6.314,2.428,12.55,5.16,18.708,8.118c9.588,4.629,18.942,9.94,28.062,15.934
					C415.057,48.711,426.983,58.347,437.74,68.895z"/>
				<path style="opacity:0.16;fill:#361E25;" d="M488.627,141.418c0.748,1.668,1.489,3.338,2.197,5.021
					C490.114,144.76,489.38,143.087,488.627,141.418z"/>
				<path style="opacity:0.16;fill:#361E25;" d="M508.606,222.016c-1.55-25.142-7.239-50.264-17.29-74.394
					c5.877,14.184,10.336,28.866,13.309,43.829C506.628,201.536,507.958,211.748,508.606,222.016z"/>
				<path style="opacity:0.16;fill:#361E25;" d="M482.732,129.25c0.212,0.408,0.426,0.815,0.636,1.224
					C483.158,130.066,482.946,129.658,482.732,129.25z"/>
				<path style="opacity:0.16;fill:#361E25;" d="M485.757,135.277c0.515,1.064,1.031,2.129,1.529,3.199
					C486.786,137.407,486.275,136.341,485.757,135.277z"/>
				<path style="opacity:0.16;fill:#361E25;" d="M437.758,68.859L437.758,68.859c0.008,0.008,0.016,0.016,0.024,0.024
					C437.774,68.875,437.766,68.867,437.758,68.859z"/>
				<path style="fill:#E887B5;" d="M509.063,236.045v3.567c-0.078,0.91-0.078,1.821-0.078,2.73v0.76
					c-0.078,1.745-0.156,3.414-0.234,5.083c0,0.684-0.078,1.366-0.078,1.973c-0.078,1.062-0.156,2.049-0.234,3.035l-21.592-1.518
					l-211.476-14.567l-5.768-0.38l-3.274-0.228l-0.701-0.076L428.776,77.619l3.586-3.49l5.378-5.235c0,0,0,0,0.078,0
					c2.728,2.655,5.456,5.463,8.029,8.269c1.169,1.139,2.26,2.353,3.274,3.567c2.183,2.352,4.21,4.78,6.236,7.284
					c2.729,3.263,5.379,6.677,7.951,10.167c2.572,3.491,5.145,7.133,7.561,10.85c1.091,1.669,2.182,3.339,3.196,5.008
					c3.118,5.007,5.924,10.091,8.652,15.175c0.234,0.455,0.468,0.835,0.624,1.289c0.078,0.152,0.156,0.304,0.234,0.456
					c0.78,1.441,1.481,2.883,2.183,4.325c0.546,1.061,1.013,2.124,1.559,3.186c0.39,0.986,0.857,1.973,1.325,2.959
					c0.702,1.669,1.481,3.339,2.183,5.008c0.156,0.379,0.312,0.758,0.468,1.213c1.481,3.49,2.884,7.057,4.131,10.623
					c1.013,2.883,1.949,5.691,2.806,8.574c0.624,1.745,1.169,3.566,1.637,5.387c0.702,2.049,1.247,4.173,1.793,6.298
					c0.312,1.061,0.546,2.125,0.78,3.186c0.701,2.656,1.325,5.387,1.793,8.119c0.156,0.531,0.312,1.061,0.39,1.593
					c0.234,1.365,0.546,2.656,0.78,4.022c0.39,2.125,0.701,4.325,1.013,6.449c1.091,6.677,1.793,13.354,2.182,20.107v0.304
					c0.156,2.2,0.234,4.476,0.312,6.676c0.078,0.684,0.078,1.366,0.078,1.973C509.063,232.706,509.063,234.376,509.063,236.045z"/>
				<path style="opacity:0.16;fill:#361E25;" d="M509.063,236.045v3.567c-0.078,0.91-0.078,1.821-0.078,2.73v0.76
					c-0.078,1.745-0.156,3.414-0.234,5.083c0,0.684-0.078,1.366-0.078,1.973c-0.078,1.062-0.156,2.049-0.234,3.035l-21.592-1.518
					l-211.476-14.567l-5.768-0.38l-3.274-0.228l-0.701-0.076L428.776,77.619l3.586-3.49l5.378-5.235c0,0,0,0,0.078,0
					c2.728,2.655,5.456,5.463,8.029,8.269c1.169,1.139,2.26,2.353,3.274,3.567c2.183,2.352,4.21,4.78,6.236,7.284
					c2.729,3.263,5.379,6.677,7.951,10.167c2.572,3.491,5.145,7.133,7.561,10.85c1.091,1.669,2.182,3.339,3.196,5.008
					c3.118,5.007,5.924,10.091,8.652,15.175c0.234,0.455,0.468,0.835,0.624,1.289c0.078,0.152,0.156,0.304,0.234,0.456
					c0.78,1.441,1.481,2.883,2.183,4.325c0.546,1.061,1.013,2.124,1.559,3.186c0.39,0.986,0.857,1.973,1.325,2.959
					c0.702,1.669,1.481,3.339,2.183,5.008c0.156,0.379,0.312,0.758,0.468,1.213c1.481,3.49,2.884,7.057,4.131,10.623
					c1.013,2.883,1.949,5.691,2.806,8.574c0.624,1.745,1.169,3.566,1.637,5.387c0.702,2.049,1.247,4.173,1.793,6.298
					c0.312,1.061,0.546,2.125,0.78,3.186c0.701,2.656,1.325,5.387,1.793,8.119c0.156,0.531,0.312,1.061,0.39,1.593
					c0.234,1.365,0.546,2.656,0.78,4.022c0.39,2.125,0.701,4.325,1.013,6.449c1.091,6.677,1.793,13.354,2.182,20.107v0.304
					c0.156,2.2,0.234,4.476,0.312,6.676c0.078,0.684,0.078,1.366,0.078,1.973C509.063,232.706,509.063,234.376,509.063,236.045z"/>
			</g>
			<path style="fill:#9ED7E6;" d="M243.463,256.108l-89.572,220.343c0.979,0.377,1.967,0.73,2.951,1.095
				c1.43,0.531,2.859,1.062,4.295,1.565c1.726,0.603,3.461,1.178,5.2,1.742c0.822,0.268,1.644,0.536,2.467,0.795
				c2.036,0.638,4.078,1.253,6.13,1.839c0.42,0.12,0.842,0.236,1.262,0.355c4.862,1.359,9.763,2.581,14.7,3.644
				c10.03,2.159,20.201,3.689,30.444,4.604c0.601,0.053,1.201,0.108,1.802,0.157c1.03,0.084,2.063,0.143,3.094,0.215
				L243.463,256.108z"/>
			<path style="opacity:0.16;fill:#361E25;" d="M243.463,256.108l-89.572,220.343c0.979,0.377,1.967,0.73,2.951,1.095
				c1.43,0.531,2.859,1.062,4.295,1.565c1.726,0.603,3.461,1.178,5.2,1.742c0.822,0.268,1.644,0.536,2.467,0.795
				c2.036,0.638,4.078,1.253,6.13,1.839c0.42,0.12,0.842,0.236,1.262,0.355c4.862,1.359,9.763,2.581,14.7,3.644
				c10.03,2.159,20.201,3.689,30.444,4.604c0.601,0.053,1.201,0.108,1.802,0.157c1.03,0.084,2.063,0.143,3.094,0.215
				L243.463,256.108z"/>
			<path style="fill:#9ED7E6;" d="M243.463,256.108L71.31,423.681c0.024,0.024,0.049,0.047,0.073,0.07
				c1.938,1.888,3.914,3.726,5.907,5.541c0.655,0.594,1.314,1.185,1.977,1.773c1.315,1.171,2.647,2.318,3.984,3.458
				c1.117,0.949,2.234,1.898,3.373,2.829c0.759,0.623,1.53,1.229,2.295,1.842c5.806,4.633,11.863,9.062,18.206,13.236
				c3.716,2.445,7.477,4.773,11.278,6.99c0.065,0.038,0.131,0.076,0.197,0.114c5.49,3.194,11.065,6.145,16.709,8.871
				c0.325,0.157,0.648,0.317,0.974,0.472c1.49,0.712,2.987,1.399,4.486,2.079c0.84,0.38,1.682,0.755,2.526,1.126
				c1.194,0.525,2.389,1.044,3.589,1.549c1.501,0.63,3.008,1.243,4.52,1.843c0.617,0.246,1.231,0.501,1.85,0.742
				c0.211,0.082,0.426,0.155,0.637,0.236L243.463,256.108z"/>
			<path style="opacity:0.16;fill:#361E25;" d="M243.463,256.108L71.31,423.681c0.024,0.024,0.049,0.047,0.073,0.07
				c1.938,1.888,3.914,3.726,5.907,5.541c0.655,0.594,1.314,1.185,1.977,1.773c1.315,1.171,2.647,2.318,3.984,3.458
				c1.117,0.949,2.234,1.898,3.373,2.829c0.759,0.623,1.53,1.229,2.295,1.842c5.806,4.633,11.863,9.062,18.206,13.236
				c3.716,2.445,7.477,4.773,11.278,6.99c0.065,0.038,0.131,0.076,0.197,0.114c5.49,3.194,11.065,6.145,16.709,8.871
				c0.325,0.157,0.648,0.317,0.974,0.472c1.49,0.712,2.987,1.399,4.486,2.079c0.84,0.38,1.682,0.755,2.526,1.126
				c1.194,0.525,2.389,1.044,3.589,1.549c1.501,0.63,3.008,1.243,4.52,1.843c0.617,0.246,1.231,0.501,1.85,0.742
				c0.211,0.082,0.426,0.155,0.637,0.236L243.463,256.108z"/>
		</g>
	</g>
	<path style="opacity:0.2;fill:#FFFFFF;" d="M240.95,22.079c6.601,0,13.05,0.304,19.499,0.835l-0.227,2.958l-0.455,6.45
		c-3.718-0.228-7.511-0.304-11.305-0.304c-48.332,0-93.25,14.719-130.428,39.834c-0.076,0.076-0.228,0.152-0.304,0.228
		c-24.052,16.313-44.918,36.951-61.458,60.851c-2.959,4.324-5.767,8.725-8.498,13.278c-20.714,34.826-32.626,75.571-32.626,119.046
		c0,11.305,0.834,22.383,2.428,33.309c0.835,6.145,1.972,12.292,3.339,18.286c6.904,30.35,19.651,58.499,37.102,83.158
		c-19.044-24.052-33.46-51.898-41.807-82.248c-1.669-5.918-3.111-11.988-4.249-18.134c-2.807-14.34-4.249-29.135-4.249-44.31
		c0-25.494,4.098-50.077,11.685-73.067c6.525-19.879,15.706-38.621,27.087-55.768C88.29,63.583,159.764,22.079,240.95,22.079z"/>
	<path style="opacity:0.2;fill:#FFFFFF;" d="M445.242,85.656c-5.867-6.046-12.09-11.828-18.576-17.202
		c-1.91-1.563-3.813-3.05-5.724-4.612c-20.592-16.009-43.901-28.694-68.915-37.092c-0.076,0.008-0.076,0.008-0.076,0.008
		c-1.185-0.415-2.446-0.822-3.631-1.237c-19.533-6.202-40.039-9.942-61.239-10.715c-0.234-0.053-0.536-0.023-0.763,0l-0.19-8.75
		c0.234,0.053,0.461,0.03,0.695,0.083c21.97,1.611,43.186,6.348,63.149,13.803c1.186,0.415,2.371,0.829,3.564,1.32
		c0.076-0.007,0.083,0.068,0.083,0.068c25.143,9.681,48.203,23.688,68.41,41.185c1.835,1.57,3.677,3.215,5.444,4.868
		c0,0,0.076-0.007,0.083,0.068C433.771,73.156,439.646,79.277,445.242,85.656z"/>
</g>
</svg>